<svg xmlns="http://www.w3.org/2000/svg" width="318.885" height="247.5" viewBox="0 0 318.885 247.5">
  <g id="book_icon" transform="translate(-365.5 -2648)">
    <rect id="사각형_48" data-name="사각형 48" width="300.671" height="216.089" transform="translate(372 2660.456)" fill="#d6f2d6" opacity="0.26"/>
    <g id="그룹_8" data-name="그룹 8" transform="translate(372 2660.456)">
      <path id="합치기_1" data-name="합치기 1" d="M139.412,218.407H16.5A16.5,16.5,0,0,1,0,201.906V16.5A16.5,16.5,0,0,1,16.5,0H289.384a16.5,16.5,0,0,1,16.5,16.5V201.906a16.5,16.5,0,0,1-16.5,16.5H167.052a14.489,14.489,0,0,1-27.64,0Z" transform="translate(0 0)" fill="none" stroke="#386138" stroke-linecap="round" stroke-linejoin="round" stroke-width="13"/>
      <g id="패스_24" data-name="패스 24" transform="translate(-2106.56 -3852.997)" fill="#386138" stroke-linecap="round" stroke-linejoin="round">
        <path d="M 2260.257080078125 4078.742431640625 C 2257.940673828125 4078.742431640625 2255.637939453125 4078.068115234375 2253.4130859375 4076.73828125 C 2251.65185546875 4075.685791015625 2249.93603515625 4074.221923828125 2248.313232421875 4072.387451171875 C 2245.563720703125 4069.279296875 2244.04833984375 4066.218505859375 2243.985107421875 4066.08984375 L 2243.6318359375 4065.36962890625 L 2244.43408203125 4065.36962890625 L 2274.570068359375 4065.36962890625 L 2275.287109375 4065.36962890625 L 2275.039306640625 4066.04248046875 C 2274.99169921875 4066.171630859375 2273.84619140625 4069.2421875 2271.468994140625 4072.359130859375 C 2270.064208984375 4074.201416015625 2268.52001953125 4075.671630859375 2266.879638671875 4076.7294921875 C 2264.807861328125 4078.065185546875 2262.57958984375 4078.742431640625 2260.257080078125 4078.742431640625 Z" stroke="none"/>
        <path d="M 2244.43408203125 4065.86962890625 C 2244.43408203125 4065.86962890625 2250.502685546875 4078.242431640625 2260.257080078125 4078.242431640625 C 2270.011474609375 4078.242431640625 2274.570068359375 4065.86962890625 2274.570068359375 4065.86962890625 L 2244.43408203125 4065.86962890625 M 2244.43408203125 4064.86962890625 L 2274.570068359375 4064.86962890625 C 2274.89697265625 4064.86962890625 2275.203369140625 4065.029541015625 2275.390380859375 4065.297607421875 C 2275.577392578125 4065.56591796875 2275.621337890625 4065.908447265625 2275.50830078125 4066.21533203125 C 2275.459716796875 4066.347412109375 2274.288818359375 4069.486083984375 2271.86669921875 4072.662353515625 C 2270.426513671875 4074.55078125 2268.83984375 4076.060546875 2267.150390625 4077.149658203125 C 2264.99658203125 4078.538330078125 2262.677490234375 4079.242431640625 2260.257080078125 4079.242431640625 C 2257.848876953125 4079.242431640625 2255.4599609375 4078.54443359375 2253.156494140625 4077.16748046875 C 2251.351318359375 4076.08837890625 2249.595703125 4074.591552734375 2247.938720703125 4072.71875 C 2245.14501953125 4069.560546875 2243.6005859375 4066.441162109375 2243.536376953125 4066.31005859375 C 2243.38427734375 4066 2243.40283203125 4065.633544921875 2243.58544921875 4065.340576171875 C 2243.76806640625 4065.047607421875 2244.0888671875 4064.86962890625 2244.43408203125 4064.86962890625 Z" stroke="none" fill="#386138"/>
      </g>
    </g>
    <path id="패스_23" data-name="패스 23" d="M2027.031,3158.664v193.177s24.365-11.217,67.917-11.217,61.562,11.217,61.562,11.217,38.9-12.463,70.271-11.217,60.031,11.217,60.031,11.217V3158.664s-32.9-15.766-60.031-15.766-70.271,15.766-70.271,15.766-22.3-15.766-61.562-15.766S2027.031,3158.664,2027.031,3158.664Z" transform="translate(-1631.979 -494.898)" fill="#fff"/>
    <path id="패스_25" data-name="패스 25" d="M2318.206,3144.393s-44.412,2.675-66.415,15.854c-.272.644,0,199.81,0,199.81s3.3-131.539,32.008-172.115S2318.206,3144.393,2318.206,3144.393Z" transform="translate(-1726.727 -496.393)" fill="#e1e8e1"/>
  </g>
</svg>
