<svg id="구성_요소_8_1" data-name="구성 요소 8 – 1" xmlns="http://www.w3.org/2000/svg" width="262" height="36.73" viewBox="0 0 262 36.73">
  <text id="Google_로_로그인_하기" data-name="Google 로 로그인 하기" transform="translate(51 26)" font-size="22" font-family="NotoSansCJKkr-Medium, Noto Sans CJK KR" font-weight="500"><tspan x="0" y="0">Google 로 로그인 하기</tspan></text>
  <path id="Icon_ionic-logo-google" data-name="Icon ionic-logo-google" d="M39.213,18.8l-.184-.78H22.066V25.2H32.2c-1.052,5-5.935,7.627-9.924,7.627a11.868,11.868,0,0,1-7.986-3.182,11.4,11.4,0,0,1-3.4-8.048,11.76,11.76,0,0,1,3.34-8.039,11.361,11.361,0,0,1,7.934-3.1,10.348,10.348,0,0,1,6.75,2.63l5.1-5.076A18.052,18.052,0,0,0,22,3.382h0A18.58,18.58,0,0,0,8.846,8.73a18.505,18.505,0,0,0-5.19,12.878A18.319,18.319,0,0,0,8.644,34.275a19.03,19.03,0,0,0,13.72,5.567A16.924,16.924,0,0,0,34.69,34.661a18.2,18.2,0,0,0,4.734-12.606A20.991,20.991,0,0,0,39.213,18.8Z" transform="translate(-3.656 -3.112)" fill="#83827f"/>
</svg>
