<svg id="구성_요소_7_1" data-name="구성 요소 7 – 1" xmlns="http://www.w3.org/2000/svg" xmlns:xlink="http://www.w3.org/1999/xlink" width="116" height="116.921" viewBox="0 0 116 116.921">
  <defs>
    <clipPath id="clip-path">
      <path id="Icon_material-person" data-name="Icon material-person" d="M50.233,50.233A22.116,22.116,0,1,0,28.116,28.116,22.11,22.11,0,0,0,50.233,50.233Zm0,11.058C35.47,61.291,6,68.7,6,83.407V94.466L50.233,98.2l44.233-3.731V83.407C94.466,68.7,65,61.291,50.233,61.291Z" transform="translate(-6 -6)" fill="#fff"/>
    </clipPath>
  </defs>
  <circle id="타원_30" data-name="타원 30" cx="58" cy="58" r="58" fill="#dcdcdc"/>
  <g id="마스크_그룹_2" data-name="마스크 그룹 2" transform="translate(13.473 24.724)" clip-path="url(#clip-path)">
    <path id="패스_32" data-name="패스 32" d="M60.5,0C93.913,0,121,27.758,121,62s-27.059,62.372-60.5,62S0,96.242,0,62,27.087,0,60.5,0Z" transform="translate(-16.473 -32.724)" fill="#fff"/>
  </g>
</svg>
